<svg xmlns="http://www.w3.org/2000/svg" version="1.1" xmlns:xlink="http://www.w3.org/1999/xlink" xmlns:svgjs="http://svgjs.com/svgjs" width="1448" height="556" preserveAspectRatio="none" viewBox="0 0 1448 556">
    <g mask="url(&quot;#SvgjsMask1415&quot;)" fill="none">
        <rect width="1448" height="556" x="0" y="0" fill="rgba(218, 236, 255, 1)"></rect>
        <use xlink:href="#SvgjsSymbol1422" x="0" y="0"></use>
        <use xlink:href="#SvgjsSymbol1422" x="720" y="0"></use>
        <use xlink:href="#SvgjsSymbol1422" x="1440" y="0"></use>
    </g>
    <defs>
        <mask id="SvgjsMask1415">
            <rect width="1448" height="556" fill="#ffffff"></rect>
        </mask>
        <path d="M-1 0 a1 1 0 1 0 2 0 a1 1 0 1 0 -2 0z" id="SvgjsPath1416"></path>
        <path d="M-3 0 a3 3 0 1 0 6 0 a3 3 0 1 0 -6 0z" id="SvgjsPath1417"></path>
        <path d="M-5 0 a5 5 0 1 0 10 0 a5 5 0 1 0 -10 0z" id="SvgjsPath1420"></path>
        <path d="M2 -2 L-2 2z" id="SvgjsPath1418"></path>
        <path d="M6 -6 L-6 6z" id="SvgjsPath1419"></path>
        <path d="M30 -30 L-30 30z" id="SvgjsPath1421"></path>
    </defs>
    <symbol id="SvgjsSymbol1422">
        <use xlink:href="#SvgjsPath1416" x="30" y="30" stroke="rgba(25, 255, 0, 1)"></use>
        <use xlink:href="#SvgjsPath1417" x="30" y="90" stroke="rgba(0, 9, 255, 1)"></use>
        <use xlink:href="#SvgjsPath1418" x="30" y="150" stroke="rgba(255, 0, 0, 1)"></use>
        <use xlink:href="#SvgjsPath1419" x="30" y="210" stroke="rgba(255, 234, 0, 1)"></use>
        <use xlink:href="#SvgjsPath1419" x="30" y="270" stroke="rgba(25, 255, 0, 1)"></use>
        <use xlink:href="#SvgjsPath1420" x="30" y="330" stroke="#1c538e"></use>
        <use xlink:href="#SvgjsPath1416" x="30" y="390" stroke="rgba(255, 234, 0, 1)"></use>
        <use xlink:href="#SvgjsPath1419" x="30" y="450" stroke="rgba(255, 0, 0, 1)"></use>
        <use xlink:href="#SvgjsPath1418" x="30" y="510" stroke="#1c538e"></use>
        <use xlink:href="#SvgjsPath1420" x="30" y="570" stroke="rgba(0, 9, 255, 1)"></use>
        <use xlink:href="#SvgjsPath1418" x="90" y="30" stroke="rgba(25, 255, 0, 1)"></use>
        <use xlink:href="#SvgjsPath1418" x="90" y="90" stroke="rgba(255, 0, 0, 1)"></use>
        <use xlink:href="#SvgjsPath1420" x="90" y="150" stroke="rgba(0, 9, 255, 1)"></use>
        <use xlink:href="#SvgjsPath1418" x="90" y="210" stroke="rgba(25, 255, 0, 1)"></use>
        <use xlink:href="#SvgjsPath1419" x="90" y="270" stroke="rgba(25, 255, 0, 1)"></use>
        <use xlink:href="#SvgjsPath1420" x="90" y="330" stroke="#1c538e"></use>
        <use xlink:href="#SvgjsPath1419" x="90" y="390" stroke="rgba(25, 255, 0, 1)"></use>
        <use xlink:href="#SvgjsPath1419" x="90" y="450" stroke="rgba(255, 0, 0, 1)"></use>
        <use xlink:href="#SvgjsPath1420" x="90" y="510" stroke="rgba(255, 0, 0, 1)"></use>
        <use xlink:href="#SvgjsPath1419" x="90" y="570" stroke="rgba(25, 255, 0, 1)"></use>
        <use xlink:href="#SvgjsPath1419" x="150" y="30" stroke="rgba(255, 234, 0, 1)"></use>
        <use xlink:href="#SvgjsPath1420" x="150" y="90" stroke="rgba(25, 255, 0, 1)"></use>
        <use xlink:href="#SvgjsPath1420" x="150" y="150" stroke="rgba(255, 0, 0, 1)"></use>
        <use xlink:href="#SvgjsPath1420" x="150" y="210" stroke="#1c538e"></use>
        <use xlink:href="#SvgjsPath1420" x="150" y="270" stroke="rgba(255, 0, 0, 1)"></use>
        <use xlink:href="#SvgjsPath1420" x="150" y="330" stroke="rgba(0, 9, 255, 1)"></use>
        <use xlink:href="#SvgjsPath1420" x="150" y="390" stroke="#1c538e"></use>
        <use xlink:href="#SvgjsPath1420" x="150" y="450" stroke="rgba(0, 9, 255, 1)"></use>
        <use xlink:href="#SvgjsPath1421" x="150" y="510" stroke="#1c538e" stroke-width="3"></use>
        <use xlink:href="#SvgjsPath1419" x="150" y="570" stroke="rgba(0, 9, 255, 1)"></use>
        <use xlink:href="#SvgjsPath1416" x="210" y="30" stroke="rgba(25, 255, 0, 1)"></use>
        <use xlink:href="#SvgjsPath1418" x="210" y="90" stroke="rgba(255, 234, 0, 1)"></use>
        <use xlink:href="#SvgjsPath1419" x="210" y="150" stroke="rgba(0, 9, 255, 1)"></use>
        <use xlink:href="#SvgjsPath1420" x="210" y="210" stroke="rgba(255, 0, 0, 1)"></use>
        <use xlink:href="#SvgjsPath1419" x="210" y="270" stroke="rgba(255, 0, 0, 1)"></use>
        <use xlink:href="#SvgjsPath1419" x="210" y="330" stroke="rgba(255, 234, 0, 1)"></use>
        <use xlink:href="#SvgjsPath1416" x="210" y="390" stroke="#1c538e"></use>
        <use xlink:href="#SvgjsPath1419" x="210" y="450" stroke="#1c538e"></use>
        <use xlink:href="#SvgjsPath1420" x="210" y="510" stroke="rgba(255, 0, 0, 1)"></use>
        <use xlink:href="#SvgjsPath1417" x="210" y="570" stroke="rgba(255, 0, 0, 1)"></use>
        <use xlink:href="#SvgjsPath1421" x="270" y="30" stroke="rgba(25, 255, 0, 1)" stroke-width="3"></use>
        <use xlink:href="#SvgjsPath1418" x="270" y="90" stroke="rgba(255, 0, 0, 1)"></use>
        <use xlink:href="#SvgjsPath1419" x="270" y="150" stroke="rgba(0, 9, 255, 1)"></use>
        <use xlink:href="#SvgjsPath1421" x="270" y="210" stroke="rgba(25, 255, 0, 1)" stroke-width="3"></use>
        <use xlink:href="#SvgjsPath1419" x="270" y="270" stroke="rgba(25, 255, 0, 1)"></use>
        <use xlink:href="#SvgjsPath1418" x="270" y="330" stroke="rgba(255, 0, 0, 1)"></use>
        <use xlink:href="#SvgjsPath1418" x="270" y="390" stroke="rgba(255, 0, 0, 1)"></use>
        <use xlink:href="#SvgjsPath1416" x="270" y="450" stroke="rgba(25, 255, 0, 1)"></use>
        <use xlink:href="#SvgjsPath1419" x="270" y="510" stroke="rgba(25, 255, 0, 1)"></use>
        <use xlink:href="#SvgjsPath1420" x="270" y="570" stroke="rgba(0, 9, 255, 1)"></use>
        <use xlink:href="#SvgjsPath1418" x="330" y="30" stroke="rgba(0, 9, 255, 1)"></use>
        <use xlink:href="#SvgjsPath1419" x="330" y="90" stroke="rgba(25, 255, 0, 1)"></use>
        <use xlink:href="#SvgjsPath1420" x="330" y="150" stroke="rgba(25, 255, 0, 1)"></use>
        <use xlink:href="#SvgjsPath1417" x="330" y="210" stroke="rgba(25, 255, 0, 1)"></use>
        <use xlink:href="#SvgjsPath1420" x="330" y="270" stroke="rgba(0, 9, 255, 1)"></use>
        <use xlink:href="#SvgjsPath1417" x="330" y="330" stroke="rgba(0, 9, 255, 1)"></use>
        <use xlink:href="#SvgjsPath1416" x="330" y="390" stroke="rgba(255, 234, 0, 1)"></use>
        <use xlink:href="#SvgjsPath1418" x="330" y="450" stroke="rgba(25, 255, 0, 1)"></use>
        <use xlink:href="#SvgjsPath1416" x="330" y="510" stroke="#1c538e"></use>
        <use xlink:href="#SvgjsPath1419" x="330" y="570" stroke="rgba(0, 9, 255, 1)"></use>
        <use xlink:href="#SvgjsPath1420" x="390" y="30" stroke="rgba(255, 0, 0, 1)"></use>
        <use xlink:href="#SvgjsPath1420" x="390" y="90" stroke="rgba(25, 255, 0, 1)"></use>
        <use xlink:href="#SvgjsPath1416" x="390" y="150" stroke="rgba(25, 255, 0, 1)"></use>
        <use xlink:href="#SvgjsPath1420" x="390" y="210" stroke="rgba(0, 9, 255, 1)"></use>
        <use xlink:href="#SvgjsPath1419" x="390" y="270" stroke="rgba(25, 255, 0, 1)"></use>
        <use xlink:href="#SvgjsPath1421" x="390" y="330" stroke="#1c538e" stroke-width="3"></use>
        <use xlink:href="#SvgjsPath1420" x="390" y="390" stroke="rgba(255, 234, 0, 1)"></use>
        <use xlink:href="#SvgjsPath1416" x="390" y="450" stroke="rgba(255, 234, 0, 1)"></use>
        <use xlink:href="#SvgjsPath1420" x="390" y="510" stroke="#1c538e"></use>
        <use xlink:href="#SvgjsPath1420" x="390" y="570" stroke="rgba(255, 234, 0, 1)"></use>
        <use xlink:href="#SvgjsPath1419" x="450" y="30" stroke="rgba(255, 234, 0, 1)"></use>
        <use xlink:href="#SvgjsPath1420" x="450" y="90" stroke="rgba(255, 234, 0, 1)"></use>
        <use xlink:href="#SvgjsPath1419" x="450" y="150" stroke="rgba(255, 234, 0, 1)"></use>
        <use xlink:href="#SvgjsPath1420" x="450" y="210" stroke="rgba(0, 9, 255, 1)"></use>
        <use xlink:href="#SvgjsPath1417" x="450" y="270" stroke="rgba(0, 9, 255, 1)"></use>
        <use xlink:href="#SvgjsPath1416" x="450" y="330" stroke="rgba(255, 234, 0, 1)"></use>
        <use xlink:href="#SvgjsPath1420" x="450" y="390" stroke="#1c538e"></use>
        <use xlink:href="#SvgjsPath1419" x="450" y="450" stroke="rgba(255, 234, 0, 1)"></use>
        <use xlink:href="#SvgjsPath1419" x="450" y="510" stroke="rgba(0, 9, 255, 1)"></use>
        <use xlink:href="#SvgjsPath1419" x="450" y="570" stroke="#1c538e"></use>
        <use xlink:href="#SvgjsPath1420" x="510" y="30" stroke="rgba(255, 0, 0, 1)"></use>
        <use xlink:href="#SvgjsPath1420" x="510" y="90" stroke="rgba(25, 255, 0, 1)"></use>
        <use xlink:href="#SvgjsPath1417" x="510" y="150" stroke="#1c538e"></use>
        <use xlink:href="#SvgjsPath1418" x="510" y="210" stroke="rgba(25, 255, 0, 1)"></use>
        <use xlink:href="#SvgjsPath1421" x="510" y="270" stroke="rgba(25, 255, 0, 1)" stroke-width="3"></use>
        <use xlink:href="#SvgjsPath1417" x="510" y="330" stroke="rgba(0, 9, 255, 1)"></use>
        <use xlink:href="#SvgjsPath1416" x="510" y="390" stroke="rgba(25, 255, 0, 1)"></use>
        <use xlink:href="#SvgjsPath1420" x="510" y="450" stroke="rgba(0, 9, 255, 1)"></use>
        <use xlink:href="#SvgjsPath1419" x="510" y="510" stroke="rgba(0, 9, 255, 1)"></use>
        <use xlink:href="#SvgjsPath1420" x="510" y="570" stroke="rgba(25, 255, 0, 1)"></use>
        <use xlink:href="#SvgjsPath1421" x="570" y="30" stroke="rgba(255, 234, 0, 1)" stroke-width="3"></use>
        <use xlink:href="#SvgjsPath1420" x="570" y="90" stroke="rgba(25, 255, 0, 1)"></use>
        <use xlink:href="#SvgjsPath1418" x="570" y="150" stroke="rgba(25, 255, 0, 1)"></use>
        <use xlink:href="#SvgjsPath1418" x="570" y="210" stroke="#1c538e"></use>
        <use xlink:href="#SvgjsPath1418" x="570" y="270" stroke="rgba(255, 234, 0, 1)"></use>
        <use xlink:href="#SvgjsPath1418" x="570" y="330" stroke="rgba(0, 9, 255, 1)"></use>
        <use xlink:href="#SvgjsPath1420" x="570" y="390" stroke="rgba(0, 9, 255, 1)"></use>
        <use xlink:href="#SvgjsPath1419" x="570" y="450" stroke="rgba(25, 255, 0, 1)"></use>
        <use xlink:href="#SvgjsPath1420" x="570" y="510" stroke="rgba(25, 255, 0, 1)"></use>
        <use xlink:href="#SvgjsPath1419" x="570" y="570" stroke="rgba(255, 0, 0, 1)"></use>
        <use xlink:href="#SvgjsPath1421" x="630" y="30" stroke="rgba(25, 255, 0, 1)" stroke-width="3"></use>
        <use xlink:href="#SvgjsPath1419" x="630" y="90" stroke="rgba(25, 255, 0, 1)"></use>
        <use xlink:href="#SvgjsPath1417" x="630" y="150" stroke="rgba(255, 0, 0, 1)"></use>
        <use xlink:href="#SvgjsPath1420" x="630" y="210" stroke="rgba(25, 255, 0, 1)"></use>
        <use xlink:href="#SvgjsPath1416" x="630" y="270" stroke="#1c538e"></use>
        <use xlink:href="#SvgjsPath1419" x="630" y="330" stroke="rgba(255, 234, 0, 1)"></use>
        <use xlink:href="#SvgjsPath1416" x="630" y="390" stroke="rgba(25, 255, 0, 1)"></use>
        <use xlink:href="#SvgjsPath1420" x="630" y="450" stroke="rgba(255, 234, 0, 1)"></use>
        <use xlink:href="#SvgjsPath1420" x="630" y="510" stroke="rgba(255, 0, 0, 1)"></use>
        <use xlink:href="#SvgjsPath1416" x="630" y="570" stroke="rgba(255, 0, 0, 1)"></use>
        <use xlink:href="#SvgjsPath1419" x="690" y="30" stroke="rgba(25, 255, 0, 1)"></use>
        <use xlink:href="#SvgjsPath1418" x="690" y="90" stroke="rgba(255, 234, 0, 1)"></use>
        <use xlink:href="#SvgjsPath1419" x="690" y="150" stroke="#1c538e"></use>
        <use xlink:href="#SvgjsPath1421" x="690" y="210" stroke="rgba(255, 234, 0, 1)" stroke-width="3"></use>
        <use xlink:href="#SvgjsPath1420" x="690" y="270" stroke="rgba(25, 255, 0, 1)"></use>
        <use xlink:href="#SvgjsPath1420" x="690" y="330" stroke="rgba(0, 9, 255, 1)"></use>
        <use xlink:href="#SvgjsPath1419" x="690" y="390" stroke="rgba(0, 9, 255, 1)"></use>
        <use xlink:href="#SvgjsPath1416" x="690" y="450" stroke="rgba(0, 9, 255, 1)"></use>
        <use xlink:href="#SvgjsPath1418" x="690" y="510" stroke="rgba(255, 234, 0, 1)"></use>
        <use xlink:href="#SvgjsPath1417" x="690" y="570" stroke="rgba(0, 9, 255, 1)"></use>
    </symbol>
</svg>